# xmcd CD database file
#
# Track frame offsets:
#	150
#	23093
#	51673
#	92998
#	122393
#	150980
#	177443
#	204180
#	221018
#	253193
#
# Disc length: 3713 seconds
#
# Revision: 1
# Processed by: cddbd v1.5.1PL0 Copyright (c) Steve Scherf et al.
# Submitted via: CDex 1.51
#
DISCID=860e7f0a
DTITLE=Viacheslav Preobrazhenski Red Mitchell Horace Palan - We all hope
DYEAR=1994
DGENRE=Jazz
TTITLE0=In the wee small hours of the morning
TTITLE1=On green Dolphin street
TTITLE2=Darn that dream
TTITLE3=Beautiful love
TTITLE4=Milstones
TTITLE5=Little Esther
TTITLE6=Keep hold of yourself
TTITLE7=Sophisticatded lady
TTITLE8=The days of wine and roses
TTITLE9=Wee dot
EXTD=YEAR: 1994
EXTT0=
EXTT1=
EXTT2=
EXTT3=
EXTT4=
EXTT5=
EXTT6=
EXTT7=
EXTT8=
EXTT9=
PLAYORDER=
